#!OML:ASF X:\für Bonn\!DataBase\2005_08_10_Bjorn_Final\c3d\bjorn.ASF
:FULLY-SPECIFIED
:DEGREES
115
root 0.861378 13.2907 3.95859 -178.496 -0.674819 -179.682
lowerback 20.2113 1.23708 4.91873
upperback 9.87423 0.494742 -1.29099
thorax -0.469234 -0.362829 -4.25814
lowerneck -26.6572 -2.88157 1.17457
upperneck 4.49293 -5.10003 2.15181
head 5.5179 -2.54287 -0.112828
rclavicle -9.52924e-015 -3.8266e-015
rhumerus 73.5359 -5.35837 -57.4489
rradius 15.7964
rwrist 29.816
rhand -13.4516 11.5611
rfingers 7.12502
rthumb 12.6578 -18.0353
lclavicle -9.52924e-015 -3.8266e-015
lhumerus 85.4109 -4.53294 56.2638
lradius 13.2847
lwrist -28.7384
lhand -25.2105 -9.99397
lfingers 7.12502
lthumb 1.30827 19.9818
rfemur -62.4256 -13.8174 14.2471
rtibia 111.815
rfoot -33.5833 19.7158
rtoes -31.4555
lfemur -63.0499 6.95817 -19.5418
ltibia 114.222
lfoot -28.8826 -9.80807
ltoes -27.8185
116
root 0.857073 13.5038 3.93432 -178.32 -0.677601 -179.617
lowerback 19.6542 1.24028 4.92356
upperback 9.74364 0.547366 -1.26674
thorax -0.326565 -0.307396 -4.23967
lowerneck -26.5441 -2.89791 1.25078
upperneck 4.76066 -5.11761 2.14625
head 5.58758 -2.53203 -0.129133
rclavicle -8.94531e-015 1.01877e-014
rhumerus 73.7147 -5.62781 -58.1553
rradius 15.6363
rwrist 30.4039
rhand -13.4199 11.5465
rfingers 7.12502
rthumb 12.6884 -18.048
lclavicle -8.94531e-015 1.01877e-014
lhumerus 85.4506 -4.50589 56.7769
lradius 13.3239
lwrist -29.2753
lhand -24.9927 -10.0349
lfingers 7.12502
lthumb 1.5186 19.9395
rfemur -61.2108 -13.2013 14.5
rtibia 109.84
rfoot -33.5058 19.0459
rtoes -31.2415
lfemur -61.8904 6.52945 -19.5084
ltibia 112.315
lfoot -28.728 -9.4292
ltoes -27.5518
117
root 0.853254 13.7169 3.90931 -178.153 -0.680086 -179.553
lowerback 19.1256 1.23801 4.93104
upperback 9.59512 0.59631 -1.23973
thorax -0.216591 -0.254394 -4.21865
lowerneck -26.3823 -2.91397 1.32046
upperneck 5.04099 -5.12584 2.11797
head 5.65383 -2.51738 -0.149979
rclavicle -5.889e-015 3.40419e-015
rhumerus 73.915 -5.8887 -59.0251
rradius 15.4741
rwrist 31.1964
rhand -13.4107 11.5414
rfingers 7.12502
rthumb 12.6973 -18.0526
lclavicle -5.889e-015 3.40419e-015
lhumerus 85.4391 -4.5058 57.3831
lradius 13.3205
lwrist -30.0295
lhand -24.861 -10.0523
lfingers 7.12502
lthumb 1.64584 19.921
rfemur -59.9791 -12.6564 14.7498
rtibia 107.828
rfoot -33.4307 18.4471
rtoes -30.9149
lfemur -60.7218 6.15439 -19.4616
ltibia 110.39
lfoot -28.5663 -9.0983
ltoes -27.3019
118
root 0.849658 13.9291 3.88249 -177.978 -0.662101 -179.47
lowerback 18.5484 1.24262 4.94948
upperback 9.46707 0.648808 -1.21341
thorax -0.0569782 -0.199062 -4.2043
lowerneck -26.1746 -2.92204 1.41663
upperneck 5.26725 -5.13172 2.07896
head 5.69478 -2.50481 -0.17687
rclavicle -5.54112e-015 3.75206e-015
rhumerus 74.1946 -6.18253 -60.1401
rradius 15.2929
rwrist 32.283
rhand -13.4304 11.5463
rfingers 7.12502
rthumb 12.6783 -18.0489
lclavicle -5.54112e-015 3.75206e-015
lhumerus 85.3812 -4.50531 57.9989
lradius 13.3701
lwrist -30.9109
lhand -24.6891 -9.9587
lfingers 7.12502
lthumb 1.81181 20.0134
rfemur -58.7408 -12.1322 15.0148
rtibia 105.78
rfoot -33.3305 17.8751
rtoes -30.5471
lfemur -59.553 5.82542 -19.3942
ltibia 108.438
lfoot -28.4397 -8.67565
ltoes -27.3044
119
root 0.846829 14.1415 3.855 -177.813 -0.664297 -179.387
lowerback 17.9931 1.24349 4.97862
upperback 9.31817 0.702118 -1.18693
thorax 0.071029 -0.142988 -4.19552
lowerneck -25.9282 -2.95049 1.49142
upperneck 5.52935 -5.1533 2.04335
head 5.74231 -2.49769 -0.200909
rclavicle -2.55687e-014 2.47487e-014
rhumerus 74.5058 -6.5075 -61.5508
rradius 15.0686
rwrist 33.8355
rhand -13.4374 11.583
rfingers 7.12502
rthumb 12.6715 -18.0126
lclavicle -2.55687e-014 2.47487e-014
lhumerus 85.2749 -4.57867 58.697
lradius 13.3685
lwrist -31.9386
lhand -24.5281 -9.78977
lfingers 7.12502
lthumb 1.96728 20.1809
rfemur -57.4852 -11.6873 15.2692
rtibia 103.684
rfoot -33.1918 17.3802
rtoes -30.1284
lfemur -58.3592 5.51445 -19.3155
ltibia 106.444
lfoot -28.282 -8.31835
ltoes -27.307
120
root 0.84369 14.3565 3.82701 -177.646 -0.657651 -179.323
lowerback 17.3972 1.25237 4.98707
upperback 9.18846 0.755864 -1.16352
thorax 0.241786 -0.0873732 -4.17722
lowerneck -25.5834 -2.96174 1.59147
upperneck 5.72092 -5.15758 2.00549
head 5.75168 -2.48494 -0.225212
rclavicle 1.41634e-015 -5.34234e-015
rhumerus 74.9008 -6.84453 -63.1528
rradius 14.8192
rwrist 35.5752
rhand -13.3553 11.6722
rfingers 7.12502
rthumb 12.7507 -17.9185
lclavicle 1.41634e-015 -5.34234e-015
lhumerus 85.2415 -4.63029 58.9522
lradius 13.2704
lwrist -32.5906
lhand -24.2815 -9.6429
lfingers 7.12502
lthumb 2.20545 20.3254
rfemur -56.2033 -11.2732 15.506
rtibia 101.525
rfoot -33.0746 16.806
rtoes -29.8911
lfemur -57.1502 5.22954 -19.2593
ltibia 104.396
lfoot -28.1085 -7.92371
ltoes -27.4464
121
root 0.839838 14.5766 3.79816 -177.489 -0.641226 -179.257
lowerback 16.785 1.25617 5.00525
upperback 9.05075 0.804475 -1.14468
thorax 0.414051 -0.0334805 -4.16757
lowerneck -25.0937 -2.98852 1.64915
upperneck 5.88159 -5.16391 1.99374
head 5.73127 -2.47239 -0.231989
rclavicle 1.0958e-014 -3.8266e-015
rhumerus 75.2905 -7.14332 -64.8958
rradius 14.5936
rwrist 37.4761
rhand -13.2389 11.754
rfingers 7.12502
rthumb 12.8629 -17.8297
lclavicle 1.0958e-014 -3.8266e-015
lhumerus 85.1537 -4.70881 59.1877
lradius 13.1202
lwrist -33.2353
lhand -24.0248 -9.491
lfingers 7.12502
lthumb 2.45343 20.4746
rfemur -54.873 -10.9032 15.7284
rtibia 99.283
rfoot -32.8778 16.404
rtoes -29.3282
lfemur -55.8769 4.95873 -19.1912
ltibia 102.27
lfoot -27.8927 -7.64818
ltoes -27.277
122
root 0.837461 14.7975 3.76867 -177.302 -0.633713 -179.211
lowerback 16.0591 1.2636 4.98423
upperback 8.93931 0.844556 -1.11837
thorax 0.673132 0.0168869 -4.12436
lowerneck -24.4829 -3.00935 1.69115
upperneck 5.94106 -5.15684 1.99705
head 5.66042 -2.45722 -0.226861
rclavicle -1.89094e-014 -7.55382e-015
rhumerus 75.5585 -7.29725 -65.7971
rradius 14.4618
rwrist 38.5425
rhand -13.0492 11.7322
rfingers 7.12502
rthumb 13.0458 -17.8399
lclavicle -1.89094e-014 -7.55382e-015
lhumerus 85.0786 -4.77541 59.2813
lradius 12.9436
lwrist -33.6351
lhand -23.6509 -9.37904
lfingers 7.12502
lthumb 2.81455 20.5821
rfemur -53.5622 -10.5722 15.9353
rtibia 96.9994
rfoot -32.6845 15.9415
rtoes -28.9486
lfemur -54.633 4.69659 -19.1352
ltibia 100.098
lfoot -27.6329 -7.43844
ltoes -26.9272
123
root 0.833951 15.0133 3.738 -177.135 -0.609409 -179.146
lowerback 15.3739 1.27348 5.01089
upperback 8.81259 0.895946 -1.10236
thorax 0.900242 0.0736478 -4.12057
lowerneck -23.8864 -3.04381 1.72944
upperneck 6.05948 -5.16476 1.98971
head 5.60975 -2.44804 -0.227084
rclavicle -9.81499e-016 -5.06901e-015
rhumerus 75.6764 -7.3502 -66.0717
rradius 14.368
rwrist 38.8248
rhand -12.756 11.6863
rfingers 7.12502
rthumb 13.3284 -17.8674
lclavicle -9.81499e-016 -5.06901e-015
lhumerus 84.9808 -4.88843 59.4184
lradius 12.7205
lwrist -34.0595
lhand -23.2825 -9.31513
lfingers 7.12502
lthumb 3.17033 20.641
rfemur -52.2313 -10.2635 16.1411
rtibia 94.6902
rfoot -32.421 15.5943
rtoes -28.3471
lfemur -53.353 4.48421 -19.0615
ltibia 97.8908
lfoot -27.4093 -7.21728
ltoes -26.6836
124
root 0.831968 15.2285 3.70369 -176.966 -0.590941 -179.116
lowerback 14.6832 1.28719 4.99246
upperback 8.67952 0.946505 -1.09443
thorax 1.12384 0.128413 -4.0987
lowerneck -23.3781 -3.08417 1.77833
upperneck 6.25332 -5.18631 1.96656
head 5.59505 -2.4444 -0.23776
rclavicle 1.56419e-014 5.66536e-015
rhumerus 75.7722 -7.36103 -66.2728
rradius 14.2491
rwrist 38.9969
rhand -12.4224 11.6339
rfingers 7.12502
rthumb 13.6499 -17.8986
lclavicle 1.56419e-014 5.66536e-015
lhumerus 84.8136 -5.0442 59.6671
lradius 12.5492
lwrist -34.5607
lhand -22.844 -9.25786
lfingers 7.12502
lthumb 3.59372 20.6916
rfemur -50.8855 -10.0039 16.306
rtibia 92.3504
rfoot -32.1626 15.2279
rtoes -27.8934
lfemur -52.0417 4.2712 -19.0301
ltibia 95.6255
lfoot -27.2408 -6.96043
ltoes -26.4963
125
root 0.829541 15.4408 3.66705 -176.777 -0.565013 -179.085
lowerback 13.9574 1.29539 4.96712
upperback 8.55395 0.985543 -1.06994
thorax 1.37423 0.176847 -4.05273
lowerneck -23.0447 -3.12822 1.73607
upperneck 6.62226 -5.19596 1.96352
head 5.66533 -2.42959 -0.231278
rclavicle 3.27995e-015 -2.45996e-015
rhumerus 75.8436 -7.31089 -66.4625
rradius 14.1739
rwrist 39.0046
rhand -12.078 11.6141
rfingers 7.12502
rthumb 13.9819 -17.8958
lclavicle 3.27995e-015 -2.45996e-015
lhumerus 84.5498 -5.1708 60.0529
lradius 12.4564
lwrist -35.0463
lhand -22.3499 -9.30394
lfingers 7.12502
lthumb 4.07087 20.6369
rfemur -49.5584 -9.77959 16.4641
rtibia 89.9908
rfoot -31.8911 14.945
rtoes -27.266
lfemur -50.7384 4.0915 -19.0037
ltibia 93.3223
lfoot -27.114 -6.66618
ltoes -26.3721
126
root 0.827281 15.6531 3.6291 -176.608 -0.546866 -179.056
lowerback 13.2406 1.30267 4.98067
upperback 8.43793 1.02377 -1.07319
thorax 1.63474 0.225965 -4.05744
lowerneck -22.7472 -3.18525 1.72174
upperneck 7.04226 -5.23731 1.97563
head 5.757 -2.42748 -0.229021
rclavicle -2.12203e-014 1.50082e-014
rhumerus 75.8533 -7.28768 -66.9357
rradius 14.1203
rwrist 39.1727
rhand -11.7809 11.5949
rfingers 7.12502
rthumb 14.2681 -17.8949
lclavicle -2.12203e-014 1.50082e-014
lhumerus 84.2423 -5.34074 60.4951
lradius 12.4442
lwrist -35.5799
lhand -21.8156 -9.32831
lfingers 7.12502
lthumb 4.58684 20.602
rfemur -48.1879 -9.57357 16.6155
rtibia 87.5822
rfoot -31.5992 14.6067
rtoes -26.8035
lfemur -49.3782 3.92529 -18.9817
ltibia 90.9475
lfoot -26.9977 -6.29391
ltoes -26.502
127
root 0.82535 15.8674 3.58925 -176.402 -0.522204 -179.027
lowerback 12.5031 1.30744 4.9669
upperback 8.29482 1.06026 -1.06214
thorax 1.87762 0.273751 -4.03045
lowerneck -22.4518 -3.22282 1.7178
upperneck 7.52996 -5.25037 1.9364
head 5.86871 -2.41376 -0.242447
rclavicle 8.07563e-016 -5.01931e-015
rhumerus 75.8072 -7.19873 -67.4424
rradius 14.0769
rwrist 39.3478
rhand -11.5711 11.5954
rfingers 7.12502
rthumb 14.4703 -17.88
lclavicle 8.07563e-016 -5.01931e-015
lhumerus 83.836 -5.50661 61.0797
lradius 12.4685
lwrist -36.2105
lhand -21.243 -9.40998
lfingers 7.12502
lthumb 5.1397 20.5077
rfemur -46.8262 -9.39892 16.7698
rtibia 85.1123
rfoot -31.2535 14.3226
rtoes -26.1538
lfemur -48.02 3.77467 -18.9628
ltibia 88.4983
lfoot -26.812 -5.99756
ltoes -26.5007
128
root 0.824365 16.0829 3.5484 -176.199 -0.494252 -179.051
lowerback 11.7717 1.31781 4.91964
upperback 8.15982 1.09776 -1.07253
thorax 2.12756 0.320066 -4.00667
lowerneck -22.2532 -3.28984 1.63563
upperneck 8.13523 -5.29356 1.94201
head 6.03661 -2.4105 -0.235719
rclavicle -1.14177e-014 1.17034e-014
rhumerus 75.6855 -7.08659 -67.8033
rradius 14.0624
rwrist 39.2776
rhand -11.4309 11.5582
rfingers 7.12502
rthumb 14.6053 -17.9075
lclavicle -1.14177e-014 1.17034e-014
lhumerus 83.4511 -5.69751 61.4616
lradius 12.4789
lwrist -36.5555
lhand -20.7556 -9.4687
lfingers 7.12502
lthumb 5.61033 20.437
rfemur -45.4434 -9.2391 16.8621
rtibia 82.5847
rfoot -30.8636 13.9724
rtoes -25.7322
lfemur -46.6154 3.63147 -19.0009
ltibia 85.9697
lfoot -26.5853 -5.66689
ltoes -26.4286
129
root 0.822515 16.2975 3.50781 -176.009 -0.475276 -179.075
lowerback 11.0598 1.32138 4.87282
upperback 8.02174 1.12595 -1.07726
thorax 2.36476 0.360283 -3.9761
lowerneck -22.028 -3.33282 1.59919
upperneck 8.7324 -5.31432 1.89882
head 6.1952 -2.40122 -0.248834
rclavicle 1.17656e-014 5.24295e-015
rhumerus 75.4333 -6.85977 -67.5182
rradius 14.0642
rwrist 38.6027
rhand -11.4211 11.4634
rfingers 7.12502
rthumb 14.6148 -18.0016
lclavicle 1.17656e-014 5.24295e-015
lhumerus 83.0732 -5.88197 61.8494
lradius 12.4205
lwrist -36.8944
lhand -20.3013 -9.5744
lfingers 7.12502
lthumb 6.04892 20.3192
rfemur -44.0212 -9.09132 16.9341
rtibia 79.9928
rfoot -30.3833 13.779
rtoes -24.8811
lfemur -45.1676 3.49001 -19.0404
ltibia 83.3637
lfoot -26.3319 -5.40822
ltoes -26.2742
